{
  "accessors": [
    {
      "bufferView": 2,
      "componentType": 5126,
      "count": 566,
      "max": [
        1.2107874155044556,
        1.2107871770858765,
        40.209007263183594
      ],
      "min": [
        -1.2107871770858765,
        -1.2107875347137451,
        -15.333377838134766
      ],
      "type": "VEC3"
    },
    {
      "bufferView": 2,
      "byteOffset": 6792,
      "componentType": 5126,
      "count": 566,
      "max": [
        1.0,
        1.0,
        1.0
      ],
      "min": [
        -1.0,
        -1.0,
        -1.0
      ],
      "type": "VEC3"
    },
    {
      "bufferView": 1,
      "componentType": 5126,
      "count": 566,
      "max": [
        0.17053240537643433,
        1.0
      ],
      "min": [
        0.0,
        0.0
      ],
      "type": "VEC2"
    },
    {
      "bufferView": 1,
      "byteOffset": 4528,
      "componentType": 5126,
      "count": 566,
      "max": [
        1.7613954544067383,
        2.042959213256836
      ],
      "min": [
        -1.1106255054473877,
        -1.6840099096298218
      ],
      "type": "VEC2"
    },
    {
      "bufferView": 1,
      "byteOffset": 9056,
      "componentType": 5126,
      "count": 566,
      "max": [
        1.9377843141555786,
        1.352428913116455
      ],
      "min": [
        -0.9342363476753235,
        -19.005126953125
      ],
      "type": "VEC2"
    },
    {
      "bufferView": 1,
      "byteOffset": 13584,
      "componentType": 5126,
      "count": 566,
      "max": [
        0.17053240537643433,
        1.0
      ],
      "min": [
        0.0,
        0.0
      ],
      "type": "VEC2"
    },
    {
      "bufferView": 0,
      "componentType": 5125,
      "count": 2100,
      "type": "SCALAR"
    },
    {
      "bufferView": 2,
      "byteOffset": 13584,
      "componentType": 5126,
      "count": 12712,
      "max": [
        1.675214409828186,
        1.6752145290374756,
        2.0449905395507813
      ],
      "min": [
        -1.6752142906188965,
        -1.6752142906188965,
        0.3314385712146759
      ],
      "type": "VEC3"
    },
    {
      "bufferView": 2,
      "byteOffset": 166128,
      "componentType": 5126,
      "count": 12712,
      "max": [
        1.0,
        1.0,
        1.0
      ],
      "min": [
        -1.0,
        -1.0,
        -1.0
      ],
      "type": "VEC3"
    },
    {
      "bufferView": 1,
      "byteOffset": 18112,
      "componentType": 5126,
      "count": 12712,
      "max": [
        1.0,
        1.0
      ],
      "min": [
        0.0,
        0.01000000536441803
      ],
      "type": "VEC2"
    },
    {
      "bufferView": 0,
      "byteOffset": 8400,
      "componentType": 5125,
      "count": 57120,
      "type": "SCALAR"
    },
    {
      "bufferView": 2,
      "byteOffset": 318672,
      "componentType": 5126,
      "count": 1589,
      "max": [
        0.5715017914772034,
        0.6424055099487305,
        1.4149110317230225
      ],
      "min": [
        -0.5716007351875305,
        -0.5964656472206116,
        -0.7918804287910461
      ],
      "type": "VEC3"
    },
    {
      "bufferView": 2,
      "byteOffset": 337740,
      "componentType": 5126,
      "count": 1589,
      "max": [
        1.0,
        1.0,
        1.0
      ],
      "min": [
        -1.0,
        -1.0,
        -1.0
      ],
      "type": "VEC3"
    },
    {
      "bufferView": 1,
      "byteOffset": 119808,
      "componentType": 5126,
      "count": 1589,
      "max": [
        1.0,
        1.0
      ],
      "min": [
        0.0,
        0.01000000536441803
      ],
      "type": "VEC2"
    },
    {
      "bufferView": 0,
      "byteOffset": 236880,
      "componentType": 5125,
      "count": 7140,
      "type": "SCALAR"
    },
    {
      "bufferView": 2,
      "byteOffset": 356808,
      "componentType": 5126,
      "count": 401,
      "max": [
        10.539231300354004,
        10.539231300354004,
        0.8383440375328064
      ],
      "min": [
        -10.539231300354004,
        -10.539231300354004,
        -0.8383440375328064
      ],
      "type": "VEC3"
    },
    {
      "bufferView": 2,
      "byteOffset": 361620,
      "componentType": 5126,
      "count": 401,
      "max": [
        1.0,
        1.0,
        1.0
      ],
      "min": [
        -1.0,
        -1.0,
        -0.994620144367218
      ],
      "type": "VEC3"
    },
    {
      "bufferView": 1,
      "byteOffset": 132520,
      "componentType": 5126,
      "count": 401,
      "max": [
        1.0,
        1.0
      ],
      "min": [
        0.0,
        0.01000000536441803
      ],
      "type": "VEC2"
    },
    {
      "bufferView": 0,
      "byteOffset": 265440,
      "componentType": 5125,
      "count": 1332,
      "type": "SCALAR"
    },
    {
      "bufferView": 2,
      "byteOffset": 366432,
      "componentType": 5126,
      "count": 413,
      "max": [
        10.091645240783691,
        10.091645240783691,
        0.5667098760604858
      ],
      "min": [
        -10.091645240783691,
        -10.091645240783691,
        -1.9961872100830078
      ],
      "type": "VEC3"
    },
    {
      "bufferView": 2,
      "byteOffset": 371388,
      "componentType": 5126,
      "count": 413,
      "max": [
        1.0,
        1.0,
        1.0
      ],
      "min": [
        -1.0,
        -1.0,
        -1.0
      ],
      "type": "VEC3"
    },
    {
      "bufferView": 1,
      "byteOffset": 135728,
      "componentType": 5126,
      "count": 413,
      "max": [
        1.0,
        0.8638930916786194
      ],
      "min": [
        0.0,
        0.0
      ],
      "type": "VEC2"
    },
    {
      "bufferView": 0,
      "byteOffset": 270768,
      "componentType": 5125,
      "count": 1254,
      "type": "SCALAR"
    },
    {
      "bufferView": 2,
      "byteOffset": 376344,
      "componentType": 5126,
      "count": 373,
      "max": [
        13.814398765563965,
        13.814398765563965,
        9.790404319763184
      ],
      "min": [
        -2.016541202465305e-06,
        -13.814398765563965,
        -11.9920654296875
      ],
      "type": "VEC3"
    },
    {
      "bufferView": 2,
      "byteOffset": 380820,
      "componentType": 5126,
      "count": 373,
      "max": [
        1.0,
        1.0,
        0.5623387098312378
      ],
      "min": [
        -4.923954747937387e-06,
        -1.0,
        -1.0
      ],
      "type": "VEC3"
    },
    {
      "bufferView": 3,
      "componentType": 5126,
      "count": 373,
      "max": [
        1.0,
        1.0,
        1.0,
        1.0
      ],
      "min": [
        -1.0,
        -1.0,
        -0.23159466683864594,
        1.0
      ],
      "type": "VEC4"
    },
    {
      "bufferView": 1,
      "byteOffset": 139032,
      "componentType": 5126,
      "count": 373,
      "max": [
        1.75,
        1.7499998807907104
      ],
      "min": [
        -0.75,
        -0.7499998807907104
      ],
      "type": "VEC2"
    },
    {
      "bufferView": 1,
      "byteOffset": 142016,
      "componentType": 5126,
      "count": 373,
      "max": [
        1.75,
        1.7499998807907104
      ],
      "min": [
        -0.75,
        -0.7499998807907104
      ],
      "type": "VEC2"
    },
    {
      "bufferView": 1,
      "byteOffset": 145000,
      "componentType": 5126,
      "count": 373,
      "max": [
        1.75,
        1.7499998807907104
      ],
      "min": [
        -0.75,
        -0.7499998807907104
      ],
      "type": "VEC2"
    },
    {
      "bufferView": 0,
      "byteOffset": 275784,
      "componentType": 5125,
      "count": 1344,
      "type": "SCALAR"
    },
    {
      "bufferView": 2,
      "byteOffset": 385296,
      "componentType": 5126,
      "count": 450,
      "max": [
        10.089398384094238,
        13.814398765563965,
        9.790404319763184
      ],
      "min": [
        -13.814398765563965,
        -13.814398765563965,
        -11.9920654296875
      ],
      "type": "VEC3"
    },
    {
      "bufferView": 2,
      "byteOffset": 390696,
      "componentType": 5126,
      "count": 450,
      "max": [
        1.2276730558369309e-05,
        1.0,
        1.0
      ],
      "min": [
        -1.0,
        -1.0,
        -1.0
      ],
      "type": "VEC3"
    },
    {
      "bufferView": 1,
      "byteOffset": 147984,
      "componentType": 5126,
      "count": 450,
      "max": [
        1.7499988079071045,
        1.475344181060791
      ],
      "min": [
        -0.75,
        -0.7499998807907104
      ],
      "type": "VEC2"
    },
    {
      "bufferView": 0,
      "byteOffset": 281160,
      "componentType": 5125,
      "count": 1572,
      "type": "SCALAR"
    },
    {
      "bufferView": 2,
      "byteOffset": 396096,
      "componentType": 5126,
      "count": 2604,
      "max": [
        2.1782243251800537,
        0.9777640104293823,
        5.596238136291504
      ],
      "min": [
        -2.04646635055542,
        -3.246926784515381,
        -2.7598180770874023
      ],
      "type": "VEC3"
    },
    {
      "bufferView": 2,
      "byteOffset": 427344,
      "componentType": 5126,
      "count": 2604,
      "max": [
        1.0,
        1.0,
        1.0
      ],
      "min": [
        -1.0,
        -1.0,
        -1.0
      ],
      "type": "VEC3"
    },
    {
      "bufferView": 1,
      "byteOffset": 151584,
      "componentType": 5126,
      "count": 2604,
      "max": [
        0.875,
        1.0
      ],
      "min": [
        0.0,
        -0.001298189745284617
      ],
      "type": "VEC2"
    },
    {
      "bufferView": 0,
      "byteOffset": 287448,
      "componentType": 5125,
      "count": 8712,
      "type": "SCALAR"
    },
    {
      "bufferView": 2,
      "byteOffset": 458592,
      "componentType": 5126,
      "count": 1688,
      "max": [
        10.174985885620117,
        10.133901596069336,
        15.82247543334961
      ],
      "min": [
        -10.171399116516113,
        -10.135388374328613,
        -9.997352600097656
      ],
      "type": "VEC3"
    },
    {
      "bufferView": 2,
      "byteOffset": 478848,
      "componentType": 5126,
      "count": 1688,
      "max": [
        0.979785144329071,
        0.9995758533477783,
        0.9999991655349731
      ],
      "min": [
        -0.9797660112380981,
        -0.9995683431625366,
        -1.0
      ],
      "type": "VEC3"
    },
    {
      "bufferView": 3,
      "byteOffset": 5968,
      "componentType": 5126,
      "count": 1688,
      "max": [
        0.9998326301574707,
        0.9959346055984497,
        0.9603641629219055,
        1.0
      ],
      "min": [
        -0.9986326694488525,
        -0.9999715685844421,
        -0.9864038228988647,
        -1.0
      ],
      "type": "VEC4"
    },
    {
      "bufferView": 1,
      "byteOffset": 172416,
      "componentType": 5126,
      "count": 1688,
      "max": [
        0.9685354232788086,
        1.0
      ],
      "min": [
        0.0,
        0.0
      ],
      "type": "VEC2"
    },
    {
      "bufferView": 1,
      "byteOffset": 185920,
      "componentType": 5126,
      "count": 1688,
      "max": [
        0.9685354232788086,
        1.0
      ],
      "min": [
        0.0,
        0.0
      ],
      "type": "VEC2"
    },
    {
      "bufferView": 1,
      "byteOffset": 199424,
      "componentType": 5126,
      "count": 1688,
      "max": [
        0.9685354232788086,
        1.0
      ],
      "min": [
        0.0,
        0.0
      ],
      "type": "VEC2"
    },
    {
      "bufferView": 0,
      "byteOffset": 322296,
      "componentType": 5125,
      "count": 7620,
      "type": "SCALAR"
    }
  ],
  "asset": {
    "extras": {
      "author": "MaTte0 (https://sketchfab.com/matteomansion)",
      "license": "CC-BY-4.0 (http://creativecommons.org/licenses/by/4.0/)",
      "source": "https://sketchfab.com/3d-models/crew-dragon-falcon-9-c30dd3d60bce45c593af7e25c69638d7",
      "title": "Crew Dragon Falcon 9"
    },
    "generator": "Sketchfab-10.93.0",
    "version": "2.0"
  },
  "bufferViews": [
    {
      "buffer": 0,
      "byteLength": 352776,
      "name": "floatBufferViews",
      "target": 34963
    },
    {
      "buffer": 0,
      "byteLength": 212928,
      "byteOffset": 352776,
      "byteStride": 8,
      "name": "floatBufferViews",
      "target": 34962
    },
    {
      "buffer": 0,
      "byteLength": 499104,
      "byteOffset": 565704,
      "byteStride": 12,
      "name": "floatBufferViews",
      "target": 34962
    },
    {
      "buffer": 0,
      "byteLength": 32976,
      "byteOffset": 1064808,
      "byteStride": 16,
      "name": "floatBufferViews",
      "target": 34962
    }
  ],
  "buffers": [
    {
      "byteLength": 1097784,
      "uri": "scene.bin"
    }
  ],
  "images": [
    {
      "uri": "textures/Falcon9_baseColor.png"
    },
    {
      "uri": "textures/Falcon9_metallicRoughness.png"
    },
    {
      "uri": "textures/Trunk2_baseColor.jpeg"
    },
    {
      "uri": "textures/Trunk2_metallicRoughness.png"
    },
    {
      "uri": "textures/Trunk2_normal.png"
    },
    {
      "uri": "textures/SpaceX_Dragon2.001_baseColor.png"
    },
    {
      "uri": "textures/SpaceX_Dragon2.001_metallicRoughness.png"
    },
    {
      "uri": "textures/SpaceX_Dragon2.001_normal.png"
    }
  ],
  "materials": [
    {
      "doubleSided": true,
      "name": "Falcon9",
      "pbrMetallicRoughness": {
        "baseColorTexture": {
          "index": 0
        },
        "metallicFactor": 0.0,
        "metallicRoughnessTexture": {
          "index": 1
        }
      }
    },
    {
      "doubleSided": true,
      "name": "Merlin",
      "pbrMetallicRoughness": {
        "baseColorFactor": [
          0.8,
          0.8,
          0.8,
          1.0
        ],
        "roughnessFactor": 0.18392094094287395
      }
    },
    {
      "doubleSided": true,
      "name": "Capsule_trunk",
      "pbrMetallicRoughness": {
        "baseColorFactor": [
          0.0184523,
          0.0184523,
          0.0184523,
          1.0
        ],
        "metallicFactor": 0.0,
        "roughnessFactor": 0.9958739403
      }
    },
    {
      "doubleSided": true,
      "name": "Trunk2",
      "normalTexture": {
        "index": 4
      },
      "pbrMetallicRoughness": {
        "baseColorTexture": {
          "index": 2
        },
        "metallicRoughnessTexture": {
          "index": 3
        }
      }
    },
    {
      "doubleSided": true,
      "name": "Trunk1",
      "pbrMetallicRoughness": {
        "baseColorFactor": [
          0.8,
          0.8,
          0.8,
          1.0
        ],
        "metallicFactor": 0.0,
        "roughnessFactor": 0.7737258300000001
      }
    },
    {
      "doubleSided": true,
      "name": "Legs",
      "pbrMetallicRoughness": {
        "baseColorFactor": [
          0.0,
          0.0,
          0.0,
          1.0
        ],
        "metallicFactor": 0.0
      }
    },
    {
      "doubleSided": true,
      "name": "SpaceX_Dragon2.001",
      "normalTexture": {
        "index": 7
      },
      "occlusionTexture": {
        "index": 6
      },
      "pbrMetallicRoughness": {
        "baseColorTexture": {
          "index": 5
        },
        "metallicRoughnessTexture": {
          "index": 6
        }
      }
    }
  ],
  "meshes": [
    {
      "name": "F9_Falcon9_0",
      "primitives": [
        {
          "attributes": {
            "NORMAL": 1,
            "POSITION": 0,
            "TEXCOORD_0": 2,
            "TEXCOORD_1": 3,
            "TEXCOORD_2": 4,
            "TEXCOORD_3": 5
          },
          "indices": 6,
          "material": 0,
          "mode": 4
        }
      ]
    },
    {
      "name": "Engine_Merlin_0",
      "primitives": [
        {
          "attributes": {
            "NORMAL": 8,
            "POSITION": 7,
            "TEXCOORD_0": 9
          },
          "indices": 10,
          "material": 1,
          "mode": 4
        }
      ]
    },
    {
      "name": "Engine_Central_Merlin_0",
      "primitives": [
        {
          "attributes": {
            "NORMAL": 12,
            "POSITION": 11,
            "TEXCOORD_0": 13
          },
          "indices": 14,
          "material": 1,
          "mode": 4
        }
      ]
    },
    {
      "name": "Capsule_Support_Capsule_trunk_0",
      "primitives": [
        {
          "attributes": {
            "NORMAL": 16,
            "POSITION": 15,
            "TEXCOORD_0": 17
          },
          "indices": 18,
          "material": 2,
          "mode": 4
        }
      ]
    },
    {
      "name": "Trunk_Capsule_Capsule_trunk_0",
      "primitives": [
        {
          "attributes": {
            "NORMAL": 20,
            "POSITION": 19,
            "TEXCOORD_0": 21
          },
          "indices": 22,
          "material": 2,
          "mode": 4
        }
      ]
    },
    {
      "name": "Trunk_Trunk2_0",
      "primitives": [
        {
          "attributes": {
            "NORMAL": 24,
            "POSITION": 23,
            "TANGENT": 25,
            "TEXCOORD_0": 26,
            "TEXCOORD_1": 27,
            "TEXCOORD_2": 28
          },
          "indices": 29,
          "material": 3,
          "mode": 4
        }
      ]
    },
    {
      "name": "Trunk_Trunk1_0",
      "primitives": [
        {
          "attributes": {
            "NORMAL": 31,
            "POSITION": 30,
            "TEXCOORD_0": 32
          },
          "indices": 33,
          "material": 4,
          "mode": 4
        }
      ]
    },
    {
      "name": "Legs_Legs_0",
      "primitives": [
        {
          "attributes": {
            "NORMAL": 35,
            "POSITION": 34,
            "TEXCOORD_0": 36
          },
          "indices": 37,
          "material": 5,
          "mode": 4
        }
      ]
    },
    {
      "name": "Capsule_SpaceX_Dragon2.001_0",
      "primitives": [
        {
          "attributes": {
            "NORMAL": 39,
            "POSITION": 38,
            "TANGENT": 40,
            "TEXCOORD_0": 41,
            "TEXCOORD_1": 42,
            "TEXCOORD_2": 43
          },
          "indices": 44,
          "material": 6,
          "mode": 4
        }
      ]
    }
  ],
  "nodes": [
    {
      "children": [
        1
      ],
      "matrix": [
        1.0,
        0.0,
        0.0,
        0.0,
        0.0,
        2.220446049250313e-16,
        -1.0,
        0.0,
        0.0,
        1.0,
        2.220446049250313e-16,
        0.0,
        0.0,
        0.0,
        0.0,
        1.0
      ],
      "name": "Sketchfab_model"
    },
    {
      "children": [
        2
      ],
      "matrix": [
        1.0,
        0.0,
        0.0,
        0.0,
        0.0,
        0.0,
        1.0,
        0.0,
        0.0,
        -1.0,
        0.0,
        0.0,
        0.0,
        0.0,
        0.0,
        1.0
      ],
      "name": "5ea144b2e00f4a9cb3fe011db7077be0.fbx"
    },
    {
      "children": [
        3,
        5,
        7,
        9,
        11,
        13,
        16,
        18
      ],
      "name": "RootNode"
    },
    {
      "children": [
        4
      ],
      "matrix": [
        185.0,
        0.0,
        0.0,
        0.0,
        0.0,
        -3.014032568748881e-05,
        -184.99999999999756,
        0.0,
        0.0,
        99.99999999999868,
        -1.629206793918314e-05,
        0.0,
        0.0,
        1668.416748046875,
        0.0,
        1.0
      ],
      "name": "F9"
    },
    {
      "mesh": 0,
      "name": "F9_Falcon9_0"
    },
    {
      "children": [
        6
      ],
      "matrix": [
        100.0,
        0.0,
        0.0,
        0.0,
        0.0,
        -1.629206793918314e-05,
        -99.99999999999868,
        0.0,
        0.0,
        99.99999999999868,
        -1.629206793918314e-05,
        0.0,
        0.0,
        0.0,
        0.0,
        1.0
      ],
      "name": "Engine"
    },
    {
      "mesh": 1,
      "name": "Engine_Merlin_0"
    },
    {
      "children": [
        8
      ],
      "matrix": [
        100.0,
        0.0,
        0.0,
        0.0,
        0.0,
        -1.629206793918314e-05,
        -99.99999999999868,
        0.0,
        0.0,
        99.99999999999868,
        -1.629206793918314e-05,
        0.0,
        0.0,
        94.24417114257813,
        0.0,
        1.0
      ],
      "name": "Engine_Central"
    },
    {
      "mesh": 2,
      "name": "Engine_Central_Merlin_0"
    },
    {
      "children": [
        10
      ],
      "matrix": [
        17.390718460083008,
        0.0,
        0.0,
        0.0,
        0.0,
        -2.833307666628788e-06,
        -17.390718460082777,
        0.0,
        0.0,
        17.390718460082777,
        -2.833307666628788e-06,
        0.0,
        0.0,
        6094.03173828125,
        0.0,
        1.0
      ],
      "name": "Capsule_Support"
    },
    {
      "mesh": 3,
      "name": "Capsule_Support_Capsule_trunk_0"
    },
    {
      "children": [
        12
      ],
      "matrix": [
        17.54307746887207,
        0.0,
        0.0,
        0.0,
        0.0,
        -2.858130099852168e-06,
        -17.54307746887184,
        0.0,
        0.0,
        17.54307746887184,
        -2.858130099852168e-06,
        0.0,
        0.0,
        6069.77392578125,
        0.0,
        1.0
      ],
      "name": "Trunk_Capsule"
    },
    {
      "mesh": 4,
      "name": "Trunk_Capsule_Capsule_trunk_0"
    },
    {
      "children": [
        14,
        15
      ],
      "matrix": [
        7.668323021489563e-07,
        -1.9476728528724585e-15,
        -17.543077468872056,
        0.0,
        -17.54307746887204,
        -7.668323021489563e-07,
        -7.668323031227928e-07,
        0.0,
        -7.668323031227928e-07,
        17.543077468872056,
        -3.5058111351704254e-14,
        0.0,
        0.0,
        5887.7451171875,
        0.0,
        1.0
      ],
      "name": "Trunk"
    },
    {
      "mesh": 5,
      "name": "Trunk_Trunk2_0"
    },
    {
      "mesh": 6,
      "name": "Trunk_Trunk1_0"
    },
    {
      "children": [
        17
      ],
      "matrix": [
        70.71067657322372,
        1.1102230246251565e-14,
        70.71067966408575,
        0.0,
        70.71067966408482,
        -1.6292067983592062e-05,
        -70.71067657322278,
        0.0,
        1.1520231985029383e-05,
        99.99999999999869,
        -1.1520231502082368e-05,
        0.0,
        75.56865692138672,
        530.6307373046875,
        -84.88536071777344,
        1.0
      ],
      "name": "Legs"
    },
    {
      "mesh": 7,
      "name": "Legs_Legs_0"
    },
    {
      "children": [
        19
      ],
      "matrix": [
        17.69875144958496,
        0.0,
        0.0,
        0.0,
        0.0,
        -2.883492610553543e-06,
        -17.698751449584726,
        0.0,
        0.0,
        17.698751449584726,
        -2.883492610553543e-06,
        0.0,
        0.0,
        6234.138671875,
        0.0,
        1.0
      ],
      "name": "Capsule"
    },
    {
      "mesh": 8,
      "name": "Capsule_SpaceX_Dragon2.001_0"
    }
  ],
  "samplers": [
    {
      "magFilter": 9729,
      "minFilter": 9987,
      "wrapS": 10497,
      "wrapT": 10497
    }
  ],
  "scene": 0,
  "scenes": [
    {
      "name": "Sketchfab_Scene",
      "nodes": [
        0
      ]
    }
  ],
  "textures": [
    {
      "sampler": 0,
      "source": 0
    },
    {
      "sampler": 0,
      "source": 1
    },
    {
      "sampler": 0,
      "source": 2
    },
    {
      "sampler": 0,
      "source": 3
    },
    {
      "sampler": 0,
      "source": 4
    },
    {
      "sampler": 0,
      "source": 5
    },
    {
      "sampler": 0,
      "source": 6
    },
    {
      "sampler": 0,
      "source": 7
    }
  ]
}
